HIERARCHY
ROOT Hips
{
	OFFSET	0.00	0.00	0.00
	CHANNELS 6 Xposition Yposition Zposition Zrotation Xrotation Yrotation
	JOINT LeftUpLeg
	{
		OFFSET	 0.126116	-0.014019	-0.065224
		CHANNELS 3 Zrotation Xrotation Yrotation
		JOINT LeftLeg
		{
			OFFSET	 0.000000	 0.000000	 0.569914
			CHANNELS 3 Zrotation Xrotation Yrotation
			JOINT LeftFoot
			{
				OFFSET	 0.000000	 0.000000	 0.544423
				CHANNELS 3 Zrotation Xrotation Yrotation
				JOINT LeftToeBase
				{
					OFFSET	 0.000000	 0.000000	 0.207117
					CHANNELS 3 Zrotation Xrotation Yrotation
					End Site
					{
						OFFSET	 0.000000	 0.000000	 0.207117
					}
				}
			}
		}
	}
	JOINT RightUpLeg
	{
		OFFSET	-0.124023	-0.008373	-0.065224
		CHANNELS 3 Zrotation Xrotation Yrotation
		JOINT RightLeg
		{
			OFFSET	 0.000000	 0.000000	 0.570047
			CHANNELS 3 Zrotation Xrotation Yrotation
			JOINT RightFoot
			{
				OFFSET	 0.000000	 0.000000	 0.544354
				CHANNELS 3 Zrotation Xrotation Yrotation
				JOINT RightToeBase
				{
					OFFSET	 0.000000	 0.000000	 0.207540
					CHANNELS 3 Zrotation Xrotation Yrotation
					End Site
					{
						OFFSET	 0.000000	 0.000000	 0.207540
					}
				}
			}
		}
	}
	JOINT Spine
	{
		OFFSET	 0.000184	-0.007763	 0.117403
		CHANNELS 3 Zrotation Xrotation Yrotation
		JOINT Spine1
		{
			OFFSET	 0.000000	 0.000000	 0.137269
			CHANNELS 3 Zrotation Xrotation Yrotation
			JOINT Spine2
			{
				OFFSET	 0.000000	 0.000000	 0.156879
				CHANNELS 3 Zrotation Xrotation Yrotation
				JOINT LeftShoulder
				{
					OFFSET	 0.080501	-0.002496	 0.160144
					CHANNELS 3 Zrotation Xrotation Yrotation
					JOINT LeftArm
					{
						OFFSET	 0.000000	 0.000000	 0.164363
						CHANNELS 3 Zrotation Xrotation Yrotation
						JOINT LeftForeArm
						{
							OFFSET	 0.000000	 0.000000	 0.364576
							CHANNELS 3 Zrotation Xrotation Yrotation
							JOINT LeftHand
							{
								OFFSET	 0.000000	 0.000000	 0.360812
								CHANNELS 3 Zrotation Xrotation Yrotation
								JOINT LeftHandIndex1
								{
									OFFSET	 0.000000	 0.000000	 0.086006
									CHANNELS 3 Zrotation Xrotation Yrotation
									JOINT LeftHandIndex2
									{
										OFFSET	 0.000000	 0.000000	 0.047236
										CHANNELS 3 Zrotation Xrotation Yrotation
										JOINT LeftHandIndex3
										{
											OFFSET	-0.004284	-0.000551	 0.038166
											CHANNELS 3 Zrotation Xrotation Yrotation
											End Site
											{
												OFFSET	-0.004284	-0.000551	 0.038166
											}
										}
									}
								}
							}
						}
					}
				}
				JOINT Neck
				{
					OFFSET	 0.000000	 0.000000	 0.176489
					CHANNELS 3 Zrotation Xrotation Yrotation
					JOINT Head
					{
						OFFSET	 0.000000	-0.001747	 0.077940
						CHANNELS 3 Zrotation Xrotation Yrotation
						End Site
						{
							OFFSET	 0.000000	-0.001747	 0.077940
						}
					}
				}
				JOINT RightShoulder
				{
					OFFSET	-0.080363	 0.000306	 0.159706
					CHANNELS 3 Zrotation Xrotation Yrotation
					JOINT RightArm
					{
						OFFSET	 0.000000	 0.000000	 0.164196
						CHANNELS 3 Zrotation Xrotation Yrotation
						JOINT RightForeArm
						{
							OFFSET	 0.000000	 0.000000	 0.365611
							CHANNELS 3 Zrotation Xrotation Yrotation
							JOINT RightHand
							{
								OFFSET	 0.000000	 0.000000	 0.360648
								CHANNELS 3 Zrotation Xrotation Yrotation
								JOINT RightHandIndex1
								{
									OFFSET	 0.000000	 0.000000	 0.069977
									CHANNELS 3 Zrotation Xrotation Yrotation
									JOINT RightHandIndex2
									{
										OFFSET	 0.000000	 0.000000	 0.052305
										CHANNELS 3 Zrotation Xrotation Yrotation
										JOINT RightHandIndex3
										{
											OFFSET	 0.009002	-0.000782	 0.042196
											CHANNELS 3 Zrotation Xrotation Yrotation
											End Site
											{
												OFFSET	 0.009002	-0.000782	 0.042196
											}
										}
									}
								}
							}
						}
					}
				}
			}
		}
	}
}
MOTION
Frames:    8
Frame Time: 0.03333334
-11.036530	-23.637700	-0.471782	-53.440880	 8.039025	 1.717333	 4.531599	-22.099580	 174.175400	-1.671014	-40.114750	-0.209239	 0.110590	 84.666270	-0.595982	-2.385778	 28.465720	-0.000276	-2.471028	-22.984650	-178.757900	-0.123414	-40.982900	 0.005712	-0.253219	 85.585490	 0.504180	 2.407692	 17.394480	-0.224368	-0.153294	 9.059982	-0.398181	 0.346717	 6.949017	-2.366782	 0.624574	 4.615824	 0.016168	-115.669200	 89.397040	-153.555200	 56.066060	 59.877850	-78.177080	-3.667570	-4.374848	-20.867490	 6.562318	-2.197409	-5.336687	-3.812334	 37.924440	-2.927599	-2.450526	 36.184240	 0.754587	-1.378229	 35.397820	-2.634230	 0.457011	 2.636554	-0.635067	 0.728934	 7.587327	-0.175294	 94.719910	 86.907120	 171.578200	-53.486400	 70.209310	 71.740620	-3.185985	-12.976270	 25.861880	-24.047400	-3.187014	 9.584136	 6.437017	 35.671460	-0.771858	 2.830251	 35.756010	-7.813440	-2.350882	 35.473990	 5.254307
-11.035390	-23.637570	-0.472717	-53.468550	 8.045083	 1.804571	 4.498991	-22.433570	 174.102500	-1.742365	-40.713760	-0.289975	 0.057587	 84.860310	-0.623369	-2.385512	 28.526120	-0.001578	-2.444732	-23.290380	-178.769400	-0.083209	-41.451690	 0.059146	-0.483767	 85.750050	 0.796804	 2.407674	 17.758040	-0.217268	-0.260851	 9.165022	-0.476848	 0.345205	 6.889065	-2.402932	 0.614743	 4.528057	 0.016389	-115.512200	 89.387380	-153.683200	 55.763940	 59.120510	-77.860920	-3.751712	-4.139167	-21.410060	 5.802076	-2.193178	-5.341670	-3.812334	 37.924440	-2.927599	-2.450526	 36.184240	 0.754587	-1.378229	 35.397820	-2.634230	 0.443319	 2.500351	-0.589434	 0.729211	 7.553563	-0.255754	 94.722540	 86.892090	 171.550700	-53.308090	 69.659100	 71.856890	-3.133728	-12.915870	 26.271860	-23.709180	-3.186337	 9.585581	 6.437017	 35.671460	-0.771858	 2.830251	 35.756010	-7.813440	-2.350882	 35.473990	 5.254307
-11.032290	-23.636830	-0.476308	-53.569010	 8.058511	 1.841258	 4.561023	-23.338000	 174.034800	-1.838670	-41.956840	-0.339297	 0.371069	 85.228610	-0.968584	-2.385068	 28.622930	-0.003682	-2.411581	-24.008100	-178.694400	-0.052514	-42.531950	 0.131519	-0.916259	 86.054600	 1.300980	 2.407596	 18.194200	-0.208723	-0.548545	 9.439318	-0.521676	 0.349416	 6.760849	-2.430065	 0.578199	 4.341233	 0.016355	-114.542600	 89.341800	-154.554600	 54.876560	 57.872960	-77.286320	-3.744098	-3.889547	-22.606250	 5.004495	-2.172436	-5.350232	-3.812334	 37.924440	-2.927599	-2.450526	 36.184240	 0.754587	-1.378229	 35.397820	-2.634230	 0.407922	 2.138299	-0.561390	 0.695382	 7.554043	-0.300883	 94.761680	 86.872000	 171.453100	-52.595360	 68.542500	 71.773750	-3.002783	-12.930330	 27.412160	-23.171690	-3.196425	 9.574844	 6.437017	 35.671460	-0.771858	 2.830251	 35.756010	-7.813440	-2.350882	 35.473990	 5.254307
-11.027870	-23.635160	-0.481268	-53.716600	 8.167315	 1.855170	 4.718140	-24.435350	 173.999800	-1.982569	-43.558570	-0.368710	 0.717245	 85.680490	-1.311707	-2.384603	 28.727170	-0.005942	-2.377141	-25.185610	-178.589600	-0.097196	-44.029960	 0.164350	-1.430985	 86.421330	 1.829494	 2.407373	 18.794640	-0.196925	-0.994760	 9.839758	-0.552933	 0.336036	 6.561868	-2.441042	 0.546243	 4.085772	 0.016674	-113.276200	 89.278020	-155.700300	 53.561560	 56.912510	-76.833730	-3.655032	-3.940237	-24.298900	 5.015379	-2.145754	-5.356262	-3.812334	 37.924440	-2.927599	-2.450526	 36.184240	 0.754587	-1.378229	 35.397820	-2.634230	 0.378227	 1.702889	-0.547043	 0.665693	 7.498175	-0.191528	 94.821960	 86.830100	 171.283900	-51.563690	 67.314670	 71.781300	-2.648880	-13.018950	 28.958860	-22.676180	-3.189589	 9.583830	 6.437017	 35.671460	-0.771858	 2.830251	 35.756010	-7.813440	-2.350882	 35.473990	 5.254307
-11.020980	-23.631910	-0.488190	-53.927230	 8.466050	 1.744199	 4.768672	-26.184480	 174.054300	-2.222413	-45.762650	-0.531402	 0.883378	 86.295460	-1.587501	-2.383607	 28.941990	-0.010604	-2.255183	-27.061490	-178.474300	-0.150050	-46.176600	 0.257848	-1.816526	 86.917900	 2.268538	 2.406709	 19.789890	-0.177272	-1.635061	 10.439840	-0.496224	 0.324502	 6.210443	-2.403662	 0.564715	 3.655917	 0.019359	-112.283200	 89.199360	-156.506300	 51.846530	 55.957720	-76.445330	-4.517177	-3.725616	-26.906850	 4.406698	-2.118328	-5.363639	-3.812334	 37.924440	-2.927599	-2.450526	 36.184240	 0.754587	-1.378229	 35.397820	-2.634230	 0.397072	 1.048540	-0.579143	 0.683263	 7.328506	 0.051267	 94.883060	 86.731580	 171.019000	-50.169870	 65.999330	 72.149190	-1.847010	-13.120310	 30.944850	-22.171500	-3.187753	 9.586648	 6.437017	 35.671460	-0.771858	 2.830251	 35.756010	-7.813440	-2.350882	 35.473990	 5.254307
-11.011860	-23.626980	-0.496841	-54.223820	 8.901702	 1.675884	 4.800962	-28.586270	 174.049300	-2.610189	-48.573120	-0.829118	 1.192423	 87.083020	-2.094432	-2.382135	 29.253640	-0.017400	-2.113352	-29.472510	-178.390300	-0.076917	-48.977410	 0.470960	-2.476672	 87.553670	 3.067562	 2.405696	 20.778660	-0.157611	-2.369271	 11.369130	-0.468501	 0.365398	 5.681569	-2.393486	 0.628257	 2.988175	 0.025200	-112.021500	 89.118180	-156.481100	 49.852910	 55.090710	-76.032030	-5.539206	-3.489168	-30.056010	 3.960256	-2.112268	-5.365648	-3.812334	 37.924440	-2.927599	-2.450526	 36.184240	 0.754587	-1.378229	 35.397820	-2.634230	 0.476739	 0.190635	-0.675432	 0.722177	 6.902804	 0.479642	 94.881150	 86.553950	 170.725700	-48.272970	 64.658000	 72.333100	-0.750153	-13.146220	 33.196350	-21.635200	-3.189821	 9.585351	 6.437017	 35.671460	-0.771858	 2.830251	 35.756010	-7.813440	-2.350882	 35.473990	 5.254307
-11.000940	-23.620040	-0.507633	-54.580890	 9.420699	 1.762429	 4.748270	-31.655550	 173.767800	-3.086971	-52.106120	-1.278497	 3.007952	 88.082150	-4.175800	-2.380221	 29.644450	-0.025968	-2.047833	-32.523660	-178.350700	 0.108480	-52.463920	 0.742410	-5.126894	 88.360510	 5.871651	 2.404101	 21.893080	-0.135260	-3.201861	 12.562380	-0.486406	 0.457861	 5.072055	-2.489302	 0.722470	 2.108845	 0.034518	-112.383500	 89.050030	-155.786400	 47.595440	 54.499050	-75.463390	-7.211072	-2.936385	-33.340180	 3.209265	-2.101103	-5.368668	-3.812334	 37.924440	-2.927599	-2.450526	 36.184240	 0.754587	-1.378229	 35.397820	-2.634230	 0.591362	-0.711452	-0.817773	 0.787484	 6.100166	 0.960274	 94.757280	 86.316610	 170.543500	-45.769610	 63.214090	 71.919730	 0.474035	-13.016390	 35.640870	-21.017300	-3.201162	 9.575315	 6.437017	 35.671460	-0.771858	 2.830251	 35.756010	-7.813440	-2.350882	 35.473990	 5.254307
-10.987380	-23.611370	-0.521958	-54.978260	 10.304810	 1.897870	 4.470624	-35.831980	 173.350700	-4.081804	-56.679830	-2.329959	 9.875562	 89.325650	-11.580360	-2.378295	 30.022360	-0.034304	-1.969705	-36.803540	-178.358100	 0.299012	-56.801020	 1.052588	-15.985950	 89.450350	 16.843040	 2.402087	 22.973060	-0.113405	-4.256667	 13.866960	-0.562466	 0.571573	 4.350594	-2.600738	 0.860620	 1.059951	 0.048978	-113.167900	 88.998490	-154.650400	 45.491110	 54.477870	-74.606480	-9.677542	-1.879133	-36.537020	 2.005089	-2.100202	-5.370103	-3.812334	 37.924440	-2.927599	-2.450526	 36.184240	 0.754587	-1.378229	 35.397820	-2.634230	 0.761718	-1.826490	-1.057965	 0.884332	 5.175420	 1.683157	 94.563580	 86.041810	 170.428700	-43.170130	 62.301860	 70.984140	 2.011370	-12.675390	 37.898330	-20.511630	-3.192704	 9.584646	 6.437017	 35.671460	-0.771858	 2.830251	 35.756010	-7.813440	-2.350882	 35.473990	 5.254307
